<svg width="1440" height="1010" viewBox="0 0 1440 1010" fill="none" xmlns="http://www.w3.org/2000/svg">
<g filter="url(#filter0_f_7_19)">
<path d="M1099.33 700.796C1111.7 401.549 1236.59 103.539 1091.92 358.27C1036.4 456.011 1028.77 559.395 1031.72 631.54C1012.21 613.586 991.941 596.752 972.804 583.726C904.146 441.493 808.807 391.117 724.759 388.476C769.583 360.186 815.005 328.794 859.443 293.969C1208.15 20.6892 530.518 282.84 536.701 293.969C540.549 300.895 608.573 308.779 657.318 396.607C597.137 413.315 551.228 452.955 539.459 492.44C522.168 501.144 505.42 509.353 489.343 517.096C438.857 468.043 360.826 366.003 319.067 358.27C252.292 345.904 -227.492 540.044 186.755 594.452C225.964 599.602 262.327 607.466 296.037 617.193C289.805 628.205 307.846 634.649 358.369 638.251C627.758 742.864 698.174 950.699 706.007 666.333C811.174 674.299 871.886 665.827 880.464 594.452C886.654 542.946 926.407 552.143 972.804 583.726C972.938 584.003 973.072 584.281 973.206 584.56C1068.47 782.703 1036.45 747.418 1031.72 631.54C1056.86 654.685 1080.75 679.691 1099.33 700.796Z" fill="#FF70D1"/>
</g>
<g filter="url(#filter1_f_7_19)">
<path d="M421.965 397.926C427.998 385.004 433.66 371.895 438.975 358.789C344.599 430.387 218.932 442.921 335.946 354.961C381.49 320.725 423.121 306.313 459.181 304.722C505.474 170.82 517.216 66.5018 522.859 213.115C524.198 247.896 511.483 279.454 491.365 306.783C573.508 321.359 616.514 404.208 593.365 441.266C581.524 460.223 613.011 463.932 661.498 460.981C686.699 415.536 711.92 386.123 735.23 367.19C711.575 329.726 688.231 288.332 667.895 243.757C554.879 -3.95904 850.528 330.683 844.007 335.008C839.59 337.938 793.351 319.984 735.23 367.19C753.486 396.105 771.929 422.679 789.318 446.568C860.942 436.743 928.287 426.678 944.585 431.629C984.518 443.761 1191.43 685.352 950.006 597.918C927.154 589.642 905.089 583.652 883.943 579.429C884.231 587.2 872.564 585.615 843.977 573.296C667.399 554.214 570.212 647.715 646.339 490.329C586.7 464.941 555.966 443.153 571.466 401.78C593.211 343.735 480.86 375.025 421.965 397.926Z" fill="#F8BA38"/>
</g>
<g filter="url(#filter2_f_7_19)">
<path d="M1172.04 426.926C1166.01 414.004 1160.35 400.895 1155.03 387.789C1249.41 459.387 1375.08 471.921 1258.06 383.961C1212.52 349.725 1170.89 335.313 1134.83 333.722C1088.54 199.82 1076.79 95.5017 1071.15 242.115C1069.81 276.896 1082.53 308.453 1102.64 335.783C1020.5 350.358 977.496 433.208 1000.64 470.266C1012.49 489.223 980.998 492.932 932.511 489.981C907.311 444.536 882.089 415.123 858.779 396.19C882.435 358.726 905.778 317.332 926.114 272.757C1039.13 25.0409 743.481 359.683 750.002 364.008C754.419 366.938 800.659 348.984 858.779 396.19C840.523 425.105 822.081 451.679 804.691 475.568C733.067 465.743 665.722 455.678 649.424 460.629C609.491 472.761 402.575 714.352 644.003 626.918C666.855 618.642 688.921 612.652 710.066 608.429C709.778 616.2 721.445 614.615 750.032 602.296C926.61 583.214 1023.8 676.715 947.67 519.329C1007.31 493.941 1038.04 472.152 1022.54 430.78C1000.8 372.735 1113.15 404.025 1172.04 426.926Z" fill="#5AC8FF"/>
</g>
<defs>
<filter id="filter0_f_7_19" x="-180" y="-30" width="1541.19" height="1040" filterUnits="userSpaceOnUse" color-interpolation-filters="sRGB">
<feFlood flood-opacity="0" result="BackgroundImageFix"/>
<feBlend mode="normal" in="SourceGraphic" in2="BackgroundImageFix" result="shape"/>
<feGaussianBlur stdDeviation="100" result="effect1_foregroundBlur_7_19"/>
</filter>
<filter id="filter1_f_7_19" x="160.688" y="13.8823" width="1032.46" height="731.062" filterUnits="userSpaceOnUse" color-interpolation-filters="sRGB">
<feFlood flood-opacity="0" result="BackgroundImageFix"/>
<feBlend mode="normal" in="SourceGraphic" in2="BackgroundImageFix" result="shape"/>
<feGaussianBlur stdDeviation="64" result="effect1_foregroundBlur_7_19"/>
</filter>
<filter id="filter2_f_7_19" x="336.859" y="-21.1178" width="1160.46" height="859.062" filterUnits="userSpaceOnUse" color-interpolation-filters="sRGB">
<feFlood flood-opacity="0" result="BackgroundImageFix"/>
<feBlend mode="normal" in="SourceGraphic" in2="BackgroundImageFix" result="shape"/>
<feGaussianBlur stdDeviation="96" result="effect1_foregroundBlur_7_19"/>
</filter>
</defs>
</svg>
