<svg width="1440" height="1010" viewBox="0 0 1440 1010" fill="none" xmlns="http://www.w3.org/2000/svg">
<g filter="url(#filter0_f_7_13)">
<path d="M1099.33 279.204C1111.7 578.451 1236.59 876.461 1091.92 621.73C1036.4 523.989 1028.77 420.605 1031.72 348.46C1012.21 366.414 991.94 383.248 972.804 396.274C904.146 538.507 808.807 588.883 724.758 591.524C769.583 619.814 815.004 651.206 859.442 686.031C1208.15 959.311 530.518 697.16 536.701 686.031C540.548 679.105 608.573 671.221 657.318 583.393C597.137 566.685 551.228 527.045 539.459 487.56C522.168 478.856 505.42 470.647 489.343 462.904C438.857 511.957 360.826 613.997 319.066 621.73C252.292 634.096 -227.493 439.956 186.755 385.548C225.964 380.398 262.327 372.534 296.037 362.807C289.805 351.795 307.846 345.351 358.369 341.749C627.758 237.136 698.174 29.301 706.007 313.667C811.174 305.701 871.886 314.173 880.464 385.548C886.654 437.054 926.407 427.857 972.804 396.274C972.938 395.997 973.072 395.719 973.206 395.44C1068.47 197.297 1036.45 232.582 1031.72 348.46C1056.86 325.315 1080.75 300.309 1099.33 279.204Z" fill="#7479E2"/>
</g>
<g filter="url(#filter1_f_7_13)">
<path d="M1024.23 397.926C1018.2 385.004 1012.53 371.895 1007.22 358.789C1101.6 430.387 1227.26 442.921 1110.25 354.961C1064.7 320.725 1023.07 306.313 987.014 304.722C940.721 170.82 928.978 66.5018 923.335 213.115C921.996 247.896 934.711 279.454 954.829 306.783C872.687 321.359 829.681 404.208 852.829 441.266C864.671 460.223 833.184 463.932 784.697 460.981C759.496 415.536 734.275 386.123 710.965 367.19C734.62 329.726 757.963 288.332 778.3 243.757C891.316 -3.95904 595.667 330.683 602.187 335.008C606.605 337.938 652.844 319.984 710.965 367.19C692.708 396.105 674.266 422.679 656.877 446.568C585.253 436.743 517.907 426.678 501.61 431.629C461.676 443.761 254.76 685.352 496.188 597.918C519.04 589.642 541.106 583.652 562.251 579.429C561.964 587.2 573.63 585.615 602.218 573.296C778.795 554.214 875.982 647.715 799.856 490.329C859.494 464.941 890.229 443.153 874.729 401.78C852.983 343.735 965.335 375.025 1024.23 397.926Z" fill="#0B2718"/>
</g>
<g filter="url(#filter2_f_7_13)">
<path d="M1172.04 454.683C1166.01 467.605 1160.35 480.714 1155.03 493.82C1249.41 422.222 1375.08 409.687 1258.06 497.648C1212.52 531.884 1170.89 546.295 1134.83 547.887C1088.54 681.788 1076.79 786.107 1071.15 639.494C1069.81 604.713 1082.53 573.155 1102.64 545.826C1020.5 531.25 977.496 448.401 1000.64 411.343C1012.49 392.385 980.998 388.676 932.511 391.628C907.311 437.073 882.089 466.486 858.779 485.418C882.435 522.883 905.778 564.277 926.114 608.852C1039.13 856.568 743.481 521.925 750.002 517.601C754.419 514.671 800.659 532.625 858.779 485.418C840.523 456.504 822.081 429.93 804.691 406.04C733.067 415.866 665.722 425.931 649.424 420.98C609.491 408.847 402.575 167.257 644.003 254.691C666.855 262.966 688.921 268.956 710.066 273.18C709.778 265.409 721.445 266.994 750.032 279.313C926.61 298.395 1023.8 204.893 947.67 362.279C1007.31 387.668 1038.04 409.456 1022.54 450.829C1000.8 508.874 1113.15 477.584 1172.04 454.683Z" fill="#FF4646"/>
</g>
<defs>
<filter id="filter0_f_7_13" x="-180" y="-30" width="1541.19" height="1040" filterUnits="userSpaceOnUse" color-interpolation-filters="sRGB">
<feFlood flood-opacity="0" result="BackgroundImageFix"/>
<feBlend mode="normal" in="SourceGraphic" in2="BackgroundImageFix" result="shape"/>
<feGaussianBlur stdDeviation="100" result="effect1_foregroundBlur_7_13"/>
</filter>
<filter id="filter1_f_7_13" x="253.045" y="13.8823" width="1032.46" height="731.062" filterUnits="userSpaceOnUse" color-interpolation-filters="sRGB">
<feFlood flood-opacity="0" result="BackgroundImageFix"/>
<feBlend mode="normal" in="SourceGraphic" in2="BackgroundImageFix" result="shape"/>
<feGaussianBlur stdDeviation="64" result="effect1_foregroundBlur_7_13"/>
</filter>
<filter id="filter2_f_7_13" x="336.859" y="43.6644" width="1160.46" height="859.062" filterUnits="userSpaceOnUse" color-interpolation-filters="sRGB">
<feFlood flood-opacity="0" result="BackgroundImageFix"/>
<feBlend mode="normal" in="SourceGraphic" in2="BackgroundImageFix" result="shape"/>
<feGaussianBlur stdDeviation="96" result="effect1_foregroundBlur_7_13"/>
</filter>
</defs>
</svg>
