<svg width="24" height="24" viewBox="0 0 24 24" fill="none" xmlns="http://www.w3.org/2000/svg">
<path d="M17 11.9948C17 11.7357 16.8977 11.4974 16.7035 11.3109L8.60531 3.26943C8.42127 3.09326 8.19632 3 7.93047 3C7.409 3 7 3.40414 7 3.943C7 4.20207 7.10225 4.44041 7.26585 4.61658L14.7096 11.9948L7.26585 19.3731C7.10225 19.5492 7 19.7771 7 20.0467C7 20.5855 7.409 20.9896 7.93047 20.9896C8.19632 20.9896 8.42127 20.8963 8.60531 20.7099L16.7035 12.6787C16.8977 12.4819 17 12.2539 17 11.9948Z" fill="white" fill-opacity="0.85"/>
</svg>
